<svg width="63" height="103" viewBox="0 0 63 103" fill="none" xmlns="http://www.w3.org/2000/svg">
<g id="freepik--speech-bubbles--inject-22">
<g id="freepik--Tab--inject-22">
<path id="Vector" d="M34.4933 2.41256L32.1872 1.07776C32.0198 0.9999 31.8345 0.968316 31.6507 0.986296C31.4669 1.00428 31.2913 1.07116 31.1421 1.18L1.79356 18.1632C1.36463 18.444 1.00756 18.8216 0.751077 19.2655C0.49459 19.7094 0.345838 20.2073 0.316757 20.7192V81.2112C0.297208 81.3943 0.326911 81.5793 0.402802 81.747C0.478694 81.9148 0.598009 82.0592 0.748425 82.1655L3.02042 83.4946H3.05452C3.21772 83.5605 3.39491 83.5841 3.56967 83.5632C3.74443 83.5424 3.91108 83.4777 4.05419 83.3753L11.8074 78.8995V83.5627C11.8074 84.3863 11.938 84.8634 12.1539 84.9941L14.4259 86.3175C14.6872 86.4595 15.0677 86.096 15.4937 85.1815L20.992 73.5375L33.3573 66.358C33.7862 66.0772 34.1433 65.6996 34.3998 65.2557C34.6563 64.8118 34.805 64.3139 34.8341 63.802V3.36112C34.8624 3.18709 34.846 3.00871 34.7864 2.84277C34.7268 2.67683 34.6259 2.52879 34.4933 2.41256Z" fill="#2C557D"/>
<path id="Vector_2" opacity="0.4" d="M34.4365 2.37848C34.2733 2.32013 34.0985 2.30154 33.9266 2.32426C33.7547 2.34698 33.5907 2.41035 33.4482 2.50912L4.09397 19.498C3.66761 19.7633 3.31578 20.1327 3.07158 20.5715L0.765503 19.2367C1.00805 18.7967 1.36024 18.4269 1.7879 18.1632L31.1364 1.17432C31.3336 1.05325 31.5585 0.984802 31.7897 0.975519C31.9265 0.97294 32.0616 1.00623 32.1816 1.07208L34.4365 2.37848Z" fill="white"/>
<path id="Vector_3" opacity="0.2" d="M12.1936 85.0168C11.9834 84.8862 11.8528 84.409 11.8528 83.5854V78.9278L14.1759 77.576V84.9032C14.1759 85.687 14.2952 86.1642 14.4826 86.3232L12.1936 85.0168Z" fill="black"/>
<path id="Vector_4" opacity="0.1" d="M3.06584 83.5002L0.759765 82.1711C0.612573 82.0635 0.495904 81.9195 0.421215 81.7532C0.346526 81.5869 0.316386 81.404 0.333765 81.2226V20.7192C0.354489 20.1941 0.511045 19.6833 0.788158 19.2367L3.09424 20.5715C2.81864 21.0184 2.66402 21.5293 2.64553 22.054V82.546C2.62414 82.7281 2.65183 82.9126 2.72573 83.0804C2.79964 83.2481 2.91706 83.3931 3.06584 83.5002Z" fill="black"/>
<path id="Vector_5" d="M8.46187 22.2982L29.0746 10.3702C29.7562 9.97832 30.3071 10.2964 30.3071 11.0802V24.184C30.2839 24.6118 30.1603 25.0281 29.9461 25.3991C29.732 25.7702 29.4334 26.0856 29.0746 26.3197L8.46187 38.2477C7.78595 38.6396 7.23499 38.3215 7.23499 37.5377V24.4282C7.25843 24.0019 7.38167 23.5871 7.59477 23.2171C7.80787 22.8472 8.10487 22.5324 8.46187 22.2982Z" fill="white"/>
<path id="Vector_6" d="M30.3071 29.6311C30.2771 30.0449 30.1499 30.4458 29.9357 30.8011C29.7215 31.1564 29.4265 31.4562 29.0746 31.6759L8.46187 43.5755C7.78595 43.9674 7.23499 43.6891 7.23499 42.9507C7.26567 42.5385 7.39267 42.1393 7.60576 41.7852C7.81885 41.431 8.11208 41.1318 8.46187 40.9116L29.0746 29.012C29.7562 28.6201 30.3071 28.8984 30.3071 29.6311Z" fill="white"/>
<path id="Vector_7" d="M30.3071 34.976C30.2771 35.3898 30.1499 35.7907 29.9357 36.146C29.7215 36.5013 29.4265 36.801 29.0746 37.0208L8.46187 48.9488C7.78595 49.3407 7.23499 49.0624 7.23499 48.324C7.26567 47.9118 7.39267 47.5126 7.60576 47.1584C7.81885 46.8043 8.11208 46.5051 8.46187 46.2849L29.0746 34.3569C29.7562 33.9479 30.3071 34.2262 30.3071 34.976Z" fill="white"/>
<path id="Vector_8" d="M30.3071 40.2868C30.2771 40.7006 30.1499 41.1015 29.9357 41.4568C29.7215 41.8121 29.4265 42.1118 29.0746 42.3316L8.46187 54.2596C7.78595 54.6515 7.23499 54.3732 7.23499 53.6348C7.26567 53.2226 7.39267 52.8234 7.60576 52.4692C7.81885 52.1151 8.11208 51.8159 8.46187 51.5957L29.0746 39.6677C29.7562 39.2758 30.3071 39.5541 30.3071 40.2868Z" fill="white"/>
<path id="Vector_9" d="M30.3071 45.6146C30.2771 46.0284 30.1499 46.4293 29.9357 46.7846C29.7215 47.1399 29.4265 47.4397 29.0746 47.6594L8.46187 59.559C7.78595 59.951 7.23499 59.6726 7.23499 58.9342C7.26567 58.522 7.39267 58.1228 7.60576 57.7687C7.81885 57.4145 8.11208 57.1153 8.46187 56.8951L29.0746 44.9671C29.7562 44.632 30.3071 44.8819 30.3071 45.6146Z" fill="white"/>
<path id="Vector_10" d="M7.23499 64.2678C7.23499 65.0005 7.80299 65.2788 8.46187 64.8869L10.6203 63.643C10.9701 63.4228 11.2633 63.1236 11.4764 62.7694C11.6895 62.4153 11.8165 62.016 11.8471 61.6038C11.8471 60.8654 11.2791 60.5871 10.6203 60.979L8.46187 62.223C8.11134 62.4437 7.81766 62.7438 7.60453 63.099C7.3914 63.4542 7.26481 63.8546 7.23499 64.2678Z" fill="white"/>
<path id="Vector_11" d="M14.9712 59.809C14.9712 60.5417 15.5392 60.82 16.2038 60.4281L29.0746 52.9873C29.4265 52.7675 29.7216 52.4678 29.9357 52.1125C30.1499 51.7571 30.2772 51.3563 30.3072 50.9425C30.3072 50.2098 29.7392 49.9314 29.0746 50.3234L16.2038 57.7642C15.8519 57.9839 15.5568 58.2837 15.3426 58.639C15.1285 58.9943 15.0012 59.3952 14.9712 59.809Z" fill="white"/>
<path id="Vector_12" d="M7.23499 69.624C7.23499 70.3567 7.80299 70.635 8.46187 70.2431L10.6203 68.9992C10.9701 68.779 11.2633 68.4798 11.4764 68.1256C11.6895 67.7715 11.8165 67.3723 11.8471 66.9601C11.8471 66.2217 11.2791 65.9434 10.6203 66.3353L8.46187 67.5792C8.11134 67.7999 7.81766 68.1 7.60453 68.4552C7.3914 68.8105 7.26481 69.2108 7.23499 69.624Z" fill="white"/>
<path id="Vector_13" d="M14.9712 65.1368C14.9712 65.8695 15.5392 66.1478 16.2038 65.7559L29.0746 58.3151C29.4265 58.0954 29.7216 57.7956 29.9357 57.4403C30.1499 57.085 30.2772 56.6841 30.3072 56.2703C30.3072 55.5376 29.7392 55.2593 29.0746 55.6512L16.2038 63.092C15.8519 63.3118 15.5568 63.6115 15.3426 63.9668C15.1285 64.3221 15.0012 64.723 14.9712 65.1368Z" fill="white"/>
<path id="Vector_14" d="M7.23499 74.9234C7.23499 75.6562 7.80299 75.9345 8.46187 75.5426L10.6203 74.2986C10.9701 74.0785 11.2633 73.7793 11.4764 73.4251C11.6895 73.0709 11.8165 72.6717 11.8471 72.2595C11.8471 71.5211 11.2791 71.2428 10.6203 71.6347L8.46187 72.8786C8.11134 73.0994 7.81766 73.3995 7.60453 73.7547C7.3914 74.1099 7.26481 74.5103 7.23499 74.9234Z" fill="white"/>
<path id="Vector_15" d="M14.9712 70.4646C14.9712 71.1974 15.5392 71.4757 16.2038 71.0838L29.0746 63.643C29.4258 63.4238 29.7204 63.1249 29.9345 62.7706C30.1487 62.4164 30.2763 62.0167 30.3072 61.6038C30.3072 60.8654 29.7392 60.5871 29.0746 60.979L16.2038 68.4198C15.8519 68.6396 15.5568 68.9393 15.3426 69.2947C15.1285 69.65 15.0012 70.0508 14.9712 70.4646Z" fill="white"/>
</g>
<g id="freepik--tab--inject-22">
<path id="Vector_16" d="M62.1947 18.362L59.9227 17.0272C59.7552 16.9493 59.5699 16.9178 59.3861 16.9357C59.2024 16.9537 59.0267 17.0206 58.8776 17.1294L29.5119 34.107C29.083 34.3878 28.726 34.7654 28.4695 35.2093C28.213 35.6532 28.0642 36.1511 28.0351 36.663V97.155C28.0156 97.3381 28.0453 97.523 28.1212 97.6908C28.1971 97.8586 28.3164 98.003 28.4668 98.1092L30.7672 99.4383H30.7956C30.9597 99.5047 31.1379 99.5286 31.3136 99.5077C31.4894 99.4869 31.657 99.422 31.801 99.319L39.5542 94.8432V99.5065C39.5542 100.33 39.6848 100.807 39.895 100.938L42.167 102.261H42.1954C42.4567 102.403 42.8372 102.04 43.2576 101.125L48.7615 89.4813L61.1268 82.3018C61.5558 82.0209 61.9128 81.6434 62.1693 81.1994C62.4258 80.7555 62.5746 80.2576 62.6036 79.7458V19.3106C62.6241 19.1305 62.5971 18.9483 62.5253 18.7819C62.4536 18.6155 62.3396 18.4708 62.1947 18.362Z" fill="#2C557D"/>
<path id="Vector_17" opacity="0.4" d="M62.1322 18.3279C61.9689 18.2696 61.7941 18.251 61.6222 18.2737C61.4503 18.2964 61.2863 18.3598 61.1438 18.4586L31.7839 35.4474C31.3576 35.7127 31.0057 36.0822 30.7615 36.521L28.4554 35.1862C28.6996 34.7474 29.0515 34.3779 29.4778 34.1126L58.8321 17.1238C59.0287 17.0015 59.2539 16.933 59.4853 16.925C59.6202 16.9231 59.7533 16.9564 59.8715 17.0215L62.1322 18.3279Z" fill="white"/>
<path id="Vector_18" opacity="0.2" d="M39.8892 100.966C39.6791 100.836 39.5485 100.358 39.5485 99.5349V94.8773L41.8545 93.5425V100.864C41.8545 101.648 41.9738 102.125 42.1669 102.284L39.8892 100.966Z" fill="black"/>
<path id="Vector_19" opacity="0.1" d="M30.7616 99.4497L28.4612 98.1206C28.3131 98.0138 28.1958 97.8699 28.121 97.7034C28.0462 97.5369 28.0166 97.3536 28.0352 97.172V36.68C28.0536 36.1553 28.2083 35.6444 28.4839 35.1975L30.79 36.5323C30.5144 36.9792 30.3597 37.4901 30.3412 38.0148V98.5068C30.3219 98.6871 30.3507 98.8692 30.4245 99.0348C30.4983 99.2004 30.6146 99.3435 30.7616 99.4497Z" fill="black"/>
<path id="Vector_20" d="M36.1632 38.2477L56.7759 26.3197C57.4519 25.9278 58.0028 26.2458 58.0028 27.0297V40.1675C57.9798 40.5947 57.8568 41.0105 57.6437 41.3815C57.4306 41.7524 57.1334 42.0681 56.7759 42.3032L36.1632 54.2312C35.4816 54.6231 34.9307 54.305 34.9307 53.5212V40.3777C34.9538 39.9507 35.0776 39.5352 35.2917 39.165C35.5059 38.7949 35.8045 38.4806 36.1632 38.2477Z" fill="white"/>
<path id="Vector_21" d="M58.0028 45.5806C57.973 45.9937 57.8464 46.3941 57.6333 46.7493C57.4202 47.1045 57.1265 47.4046 56.7759 47.6254L36.1632 59.525C35.4816 59.9169 34.9307 59.6386 34.9307 58.9002C34.9615 58.4873 35.0892 58.0876 35.3033 57.7334C35.5175 57.3791 35.8121 57.0802 36.1632 56.861L56.7759 44.9614C57.4519 44.5695 58.0028 44.8478 58.0028 45.5806Z" fill="white"/>
<path id="Vector_22" d="M58.0028 50.9084C57.973 51.3216 57.8464 51.7219 57.6333 52.0771C57.4202 52.4324 57.1265 52.7325 56.7759 52.9532L36.1632 64.8528C35.4816 65.2447 34.9307 64.9664 34.9307 64.228C34.9615 63.8152 35.0892 63.4155 35.3033 63.0612C35.5175 62.7069 35.8121 62.4081 36.1632 62.1889L56.7759 50.312C57.4519 49.8974 58.0028 50.1757 58.0028 50.9084Z" fill="white"/>
<path id="Vector_23" d="M58.0028 56.2362C57.9704 56.6464 57.8426 57.0434 57.6296 57.3955C57.4166 57.7475 57.1243 58.0449 56.7759 58.264L36.1632 70.192C35.4816 70.5839 34.9307 70.3056 34.9307 69.5672C34.9615 69.1544 35.0892 68.7547 35.3033 68.4004C35.5175 68.0461 35.8121 67.7473 36.1632 67.5281L56.7759 55.6171C57.4519 55.2252 58.0028 55.5035 58.0028 56.2362Z" fill="white"/>
<path id="Vector_24" d="M58.0028 61.5641C57.973 61.9772 57.8464 62.3776 57.6333 62.7328C57.4202 63.088 57.1265 63.3881 56.7759 63.6089L36.1632 75.5369C35.4816 75.9288 34.9307 75.6505 34.9307 74.9121C34.9615 74.4993 35.0892 74.0995 35.3033 73.7453C35.5175 73.391 35.8121 73.0922 36.1632 72.873L56.7759 60.945C57.4519 60.536 58.0028 60.8314 58.0028 61.5641Z" fill="white"/>
<path id="Vector_25" d="M34.9307 80.2172C34.9307 80.9499 35.4987 81.2282 36.1632 80.8363L38.3159 79.5924C38.6671 79.3732 38.9617 79.0744 39.1758 78.7201C39.3899 78.3658 39.5176 77.9661 39.5485 77.5533C39.5485 76.8149 38.9805 76.5366 38.3159 76.9285L36.1632 78.1724C35.8113 78.3922 35.5163 78.6919 35.3021 79.0472C35.0879 79.4025 34.9607 79.8034 34.9307 80.2172Z" fill="white"/>
<path id="Vector_26" d="M42.6725 75.7584C42.6725 76.4911 43.2405 76.7694 43.905 76.3775L56.7759 68.9367C57.1264 68.716 57.4201 68.4159 57.6333 68.0607C57.8464 67.7054 57.973 67.3051 58.0028 66.8919C58.0028 66.1592 57.4348 65.8809 56.7759 66.2728L43.8994 73.7136C43.5488 73.9343 43.2551 74.2344 43.042 74.5897C42.8289 74.9449 42.7023 75.3452 42.6725 75.7584Z" fill="white"/>
<path id="Vector_27" d="M34.9307 85.528C34.9307 86.2607 35.4987 86.539 36.1632 86.1471L38.3159 84.9032C38.6671 84.684 38.9617 84.3851 39.1758 84.0309C39.3899 83.6766 39.5176 83.2769 39.5485 82.8641C39.5485 82.1257 38.9805 81.8474 38.3159 82.2393L36.1632 83.4832C35.8113 83.703 35.5163 84.0027 35.3021 84.358C35.0879 84.7133 34.9607 85.1142 34.9307 85.528Z" fill="white"/>
<path id="Vector_28" d="M42.6725 81.0862C42.6725 81.819 43.2405 82.0973 43.905 81.7054L56.7759 74.2646C57.1264 74.0438 57.4201 73.7437 57.6333 73.3885C57.8464 73.0333 57.973 72.6329 58.0028 72.2198C58.0028 71.487 57.4348 71.2087 56.7759 71.6006L43.8994 79.0414C43.5488 79.2622 43.2551 79.5623 43.042 79.9175C42.8289 80.2727 42.7023 80.6731 42.6725 81.0862Z" fill="white"/>
<path id="Vector_29" d="M34.9307 90.8729C34.9307 91.6056 35.4987 91.8839 36.1632 91.492L38.3159 90.2481C38.6671 90.0289 38.9617 89.73 39.1758 89.3758C39.3899 89.0215 39.5176 88.6218 39.5485 88.209C39.5485 87.4706 38.9805 87.1922 38.3159 87.5842L36.1632 88.8281C35.8113 89.0478 35.5163 89.3476 35.3021 89.7029C35.0879 90.0582 34.9607 90.4591 34.9307 90.8729Z" fill="white"/>
<path id="Vector_30" d="M42.6725 86.4141C42.6725 87.1468 43.2405 87.4251 43.905 87.0332L56.7759 79.5924C57.1257 79.3722 57.4189 79.073 57.632 78.7189C57.8451 78.3647 57.9721 77.9655 58.0028 77.5533C58.0028 76.8149 57.4348 76.5366 56.7759 76.9285L43.8994 84.392C43.5518 84.6105 43.2599 84.907 43.0469 85.258C42.834 85.609 42.7058 86.0049 42.6725 86.4141Z" fill="white"/>
</g>
</g>
</svg>
