<svg width="66" height="19" viewBox="0 0 66 19" fill="none" xmlns="http://www.w3.org/2000/svg">
<path d="M10.1325 2.644V13.424C10.1325 14.92 9.69988 16.086 8.83455 16.922C7.96921 17.7433 6.81055 18.154 5.35855 18.154C3.89188 18.154 2.70388 17.7287 1.79455 16.878C0.899879 16.0273 0.452545 14.8393 0.452545 13.314H3.53255C3.54721 13.974 3.70121 14.4873 3.99455 14.854C4.30255 15.2207 4.74255 15.404 5.31455 15.404C5.87188 15.404 6.29721 15.228 6.59055 14.876C6.88388 14.524 7.03055 14.04 7.03055 13.424V2.644H10.1325ZM18.6974 18.198C17.5241 18.198 16.4681 17.9413 15.5294 17.428C14.5908 16.9 13.8501 16.1593 13.3074 15.206C12.7794 14.2527 12.5154 13.1527 12.5154 11.906C12.5154 10.6593 12.7868 9.55933 13.3294 8.606C13.8868 7.65267 14.6421 6.91933 15.5954 6.406C16.5488 5.878 17.6121 5.614 18.7854 5.614C19.9588 5.614 21.0221 5.878 21.9754 6.406C22.9288 6.91933 23.6768 7.65267 24.2194 8.606C24.7768 9.55933 25.0554 10.6593 25.0554 11.906C25.0554 13.1527 24.7694 14.2527 24.1974 15.206C23.6401 16.1593 22.8774 16.9 21.9094 17.428C20.9561 17.9413 19.8854 18.198 18.6974 18.198ZM18.6974 15.514C19.2548 15.514 19.7754 15.382 20.2594 15.118C20.7581 14.8393 21.1541 14.4287 21.4474 13.886C21.7408 13.3433 21.8874 12.6833 21.8874 11.906C21.8874 10.7473 21.5794 9.86 20.9634 9.244C20.3621 8.61333 19.6214 8.298 18.7414 8.298C17.8614 8.298 17.1208 8.61333 16.5194 9.244C15.9328 9.86 15.6394 10.7473 15.6394 11.906C15.6394 13.0647 15.9254 13.9593 16.4974 14.59C17.0841 15.206 17.8174 15.514 18.6974 15.514ZM18.9174 2.952L15.6394 4.8V2.556L18.9174 0.773999L22.1734 2.556V4.8L18.9174 2.952ZM29.9547 7.594C30.3507 7.00733 30.8934 6.53067 31.5827 6.164C32.2867 5.79733 33.0861 5.614 33.9807 5.614C35.0221 5.614 35.9607 5.87067 36.7967 6.384C37.6474 6.89733 38.3147 7.63067 38.7987 8.584C39.2974 9.52267 39.5467 10.6153 39.5467 11.862C39.5467 13.1087 39.2974 14.216 38.7987 15.184C38.3147 16.1373 37.6474 16.878 36.7967 17.406C35.9607 17.934 35.0221 18.198 33.9807 18.198C33.0714 18.198 32.2721 18.022 31.5827 17.67C30.9081 17.3033 30.3654 16.834 29.9547 16.262V18H26.8747V1.72H29.9547V7.594ZM36.4007 11.862C36.4007 11.1287 36.2467 10.498 35.9387 9.97C35.6454 9.42733 35.2494 9.01667 34.7507 8.738C34.2667 8.45933 33.7387 8.32 33.1667 8.32C32.6094 8.32 32.0814 8.46667 31.5827 8.76C31.0987 9.03867 30.7027 9.44933 30.3947 9.992C30.1014 10.5347 29.9547 11.1727 29.9547 11.906C29.9547 12.6393 30.1014 13.2773 30.3947 13.82C30.7027 14.3627 31.0987 14.7807 31.5827 15.074C32.0814 15.3527 32.6094 15.492 33.1667 15.492C33.7387 15.492 34.2667 15.3453 34.7507 15.052C35.2494 14.7587 35.6454 14.3407 35.9387 13.798C36.2467 13.2553 36.4007 12.61 36.4007 11.862ZM42.9069 4.36C42.3642 4.36 41.9095 4.19133 41.5429 3.854C41.1909 3.502 41.0149 3.06933 41.0149 2.556C41.0149 2.04267 41.1909 1.61733 41.5429 1.28C41.9095 0.927999 42.3642 0.751999 42.9069 0.751999C43.4495 0.751999 43.8969 0.927999 44.2489 1.28C44.6155 1.61733 44.7989 2.04267 44.7989 2.556C44.7989 3.06933 44.6155 3.502 44.2489 3.854C43.8969 4.19133 43.4495 4.36 42.9069 4.36ZM44.4249 5.812V18H41.3449V5.812H44.4249ZM49.8439 15.47H55.2779V18H46.3459V15.514L51.6699 8.342H46.3679V5.812H55.2119V8.298L49.8439 15.47ZM60.0387 15.47H65.4727V18H56.5407V15.514L61.8647 8.342H56.5627V5.812H65.4067V8.298L60.0387 15.47Z" fill="#356899"/>
</svg>
