<svg width="20" height="20" viewBox="0 0 20 20" fill="none" xmlns="http://www.w3.org/2000/svg">
<g id="password.6 1">
<g id="Iconly/Light/Password">
<g id="Password">
<path id="Stroke-1" fill-rule="evenodd" clip-rule="evenodd" d="M13.6117 2.29199H6.38758C3.87008 2.29199 2.29175 4.07449 2.29175 6.59699V13.4037C2.29175 15.9262 3.86258 17.7087 6.38758 17.7087H13.6109C16.1367 17.7087 17.7084 15.9262 17.7084 13.4037V6.59699C17.7084 4.07449 16.1367 2.29199 13.6117 2.29199Z" stroke="#AFB0B6" stroke-linecap="round" stroke-linejoin="round"/>
<path id="Stroke-3" fill-rule="evenodd" clip-rule="evenodd" d="M8.90747 10.0004C8.90747 10.8529 8.21663 11.5437 7.36413 11.5437C6.51163 11.5437 5.8208 10.8529 5.8208 10.0004C5.8208 9.14786 6.51163 8.45703 7.36413 8.45703H7.36663C8.21747 8.45786 8.90747 9.1487 8.90747 10.0004Z" stroke="#AFB0B6" stroke-linecap="round" stroke-linejoin="round"/>
<path id="Stroke-5" d="M8.90991 10.0005H14.1749V11.5438" stroke="#AFB0B6" stroke-linecap="round" stroke-linejoin="round"/>
<path id="Stroke-7" d="M11.8181 11.5438V10.0005" stroke="#AFB0B6" stroke-linecap="round" stroke-linejoin="round"/>
</g>
</g>
</g>
</svg>
